<?xml version="1.0" encoding="utf-8"?>
<?xml-stylesheet type="text/xsl" href="rss1.xsl"?>
<rss version="2.0" xmlns:atom="http://www.w3.org/2005/Atom" xmlns:content="http://purl.org/rss/1.0/modules/content/" xmlns:dc="http://purl.org/dc/elements/1.1/" xmlns:media="http://search.yahoo.com/mrss/">
<channel>
 <title>Getty</title>
 <link>http://www.gettyimg.com/</link>
 <atom:link href="http://www.gettyimg.com/" rel="self" type="application/rss+xml" />

 
                <item>
                <title><![CDATA[【Actresses】Robb Guinto - Showroom (2022)1080p]]></title>
                <link><![CDATA[https://sharemania.us/threads/robb-guinto-showroom-2022-1080p.242596/]]></link>
                <description><![CDATA[<article>
<blockquote class="messageText SelectQuoteContainer ugc baseHtml">
Robb Guinto - Showroom (2022)1080p<br>
<br>
<a href="https://imgbox.com/butRvVTi" target="_blank" class="externalLink" rel="nofollow"><img src="https://thumbs2.imgbox.com/90/d7/butRvVTi_t.jpg" class="bbCodeImage LbImage" alt="[​IMG]" data-url="https://thumbs2.imgbox.com/90/d7/butRvVTi_t.jpg"></a> <a href="https://imgbox.com/rcWrtuE9" target="_blank" class="externalLink" rel="nofollow"><img src="https://thumbs2.imgbox.com/c7/15/rcWrtuE9_t.jpg" class="bbCodeImage LbImage" alt="[​IMG]" data-url="https://thumbs2.imgbox.com/c7/15/rcWrtuE9_t.jpg"></a> <a href="https://imgbox.com/ALGLO4Nr" target="_blank" class="externalLink" rel="nofollow"><img src="https://thumbs2.imgbox.com/f6/c8/ALGLO4Nr_t.jpg" class="bbCodeImage LbImage" alt="[​IMG]" data-url="https://thumbs2.imgbox.com/f6/c8/ALGLO4Nr_t.jpg"></a> <a href="https://imgbox.com/5ctYD6Lt" target="_blank" class="externalLink" rel="nofollow"><img src="https://thumbs2.imgbox.com/fa/59/5ctYD6Lt_t.jpg" class="bbCodeImage LbImage" alt="[​IMG]" data-url="https://thumbs2.imgbox.com/fa/59/5ctYD6Lt_t.jpg"></a> <a href="https://imgbox.com/qqAp6M3D" target="_blank" class="externalLink" rel="nofollow"><img src="https://thumbs2.imgbox.com/c6/0d/qqAp6M3D_t.jpg" class="bbCodeImage LbImage" alt="[​IMG]" data-url="https://thumbs2.imgbox.com/c6/0d/qqAp6M3D_t.jpg"></a> <a href="https://imgbox.com/7giNyPjb" target="_blank" class="externalLink" rel="nofollow"><img src="https://thumbs2.imgbox.com/60/74/7giNyPjb_t.jpg" class="bbCodeImage LbImage" alt="[​IMG]" data-url="https://thumbs2.imgbox.com/60/74/7giNyPjb_t.jpg"></a><br>
Duration: 0:02:58 Resolution: 1920x1080 Format: mp4 Size: 101.23 MB<br>
<a href="https://filejoker.net/zs2x0w50070s" target="_blank" class="externalLink" rel="nofollow">https://filejoker.net/zs2x0w50070s</a>
<div class="messageTextEndMarker">&nbsp;</div>
</blockquote>
</article>]]></description>
                <author><![CDATA[piqeros]]></author>
                </item>

                
                <item>
                <title><![CDATA[【MASTER &amp; MASTER RIP】MASTER - Baby K ft. Mika - Bolero (1080)]]></title>
                <link><![CDATA[https://sharemania.us/threads/baby-k-ft-mika-bolero-1080.242600/]]></link>
                <description><![CDATA[<article>
<blockquote class="messageText SelectQuoteContainer ugc baseHtml">
<div style="text-align: center"><img src="https://i.ibb.co/GMTZyg4/Baby-K-ft-Mika-Bolero-VTM.gif" class="bbCodeImage LbImage" alt="[​IMG]" data-url="https://i.ibb.co/GMTZyg4/Baby-K-ft-Mika-Bolero-VTM.gif" style=""><br>
​</div>
<div class="ToggleTriggerAnchor bbCodeSpoilerContainer">
<button type="button" class="button bbCodeSpoilerButton ToggleTrigger Tooltip JsOnly" data-target="> .SpoilerTarget"><span>Spoiler: <span class="SpoilerTitle">MASTER</span></span></button>
<div class="SpoilerTarget bbCodeSpoilerText">
<div class="bbCodeBlock bbCodeCode">
<div class="type">Code:</div>
<pre>General
Complete name                            : Baby K ft. Mika - Bolero.mp4
Format                                   : MPEG-4
Format profile                           : Base Media / Version 2
Codec ID                                 : mp42 (mp42/mp41)
File size                                : 1.29 GiB
Duration                                 : 3 min 40 s
Overall bit rate mode                    : Variable
Overall bit rate                         : 50.3 Mb/s
Frame rate                               : 25.000 FPS
Encoded date                             : 2022-07-09 10:59:44 UTC
Tagged date                              : 2022-07-09 11:02:55 UTC
TIM                                      : 00:00:00:00
TSC                                      : 25
TSZ                                      : 1

Video
ID                                       : 1
Format                                   : AVC
Format/Info                              : Advanced Video Codec
Format profile                           : Main@L4.1
Format settings                          : CABAC / 4 Ref Frames
Format settings, CABAC                   : Yes
Format settings, Reference frames        : 4 frames
Codec ID                                 : avc1
Codec ID/Info                            : Advanced Video Coding
Duration                                 : 3 min 40 s
Bit rate mode                            : Constant
Bit rate                                 : 50.0 Mb/s
Width                                    : 1 920 pixels
Height                                   : 1 080 pixels
Display aspect ratio                     : 16:9
Frame rate mode                          : Constant
Frame rate                               : 25.000 FPS
Color space                              : YUV
Chroma subsampling                       : 4:2:0
Bit depth                                : 8 bits
Scan type                                : Progressive
Bits/(Pixel*Frame)                       : 0.965
Stream size                              : 1.28 GiB (99%)
Language                                 : English
Encoded date                             : 2022-07-09 10:59:45 UTC
Tagged date                              : 2022-07-09 10:59:45 UTC
Color range                              : Limited
Color primaries                          : BT.709
Transfer characteristics                 : BT.709
Matrix coefficients                      : BT.709
Codec configuration box                  : avcC

Audio
ID                                       : 2
Format                                   : AAC LC
Format/Info                              : Advanced Audio Codec Low Complexity
Codec ID                                 : 2 / 40 / mp4a-40-2
Duration                                 : 3 min 40 s
Source duration                          : 3 min 40 s
Bit rate mode                            : Variable
Bit rate                                 : 318 kb/s
Maximum bit rate                         : 392 kb/s
Channel(s)                               : 2 channels
Channel layout                           : L R
Sampling rate                            : 44.1 kHz
Frame rate                               : 43.066 FPS (1024 SPF)
Compression mode                         : Lossy
Stream size                              : 8.35 MiB (1%)
Source stream size                       : 8.35 MiB (1%)
Language                                 : English
Encoded date                             : 2022-07-09 10:59:45 UTC
Tagged date                              : 2022-07-09 10:59:45 UTC

</pre>
</div><div style="text-align: center">​</div></div>
</div><div style="text-align: center"><br>
<div class="bbCodeBlock bbCodeVfcHH HiddenContent">
<div class="attribution type">Hidden Content:</div>
<blockquote>You must reply before you can see the hidden data contained here.</blockquote>
</div></div>
<div class="messageTextEndMarker">&nbsp;</div>
</blockquote>
</article>]]></description>
                <author><![CDATA[fstambuk]]></author>
                </item>

                
                <item>
                <title><![CDATA[【Albums (lossless)】FLAC - Taylor Swift - THE TORTURED POETS DEPARTMENT [QOBUZ HI-RES AUDIO 24-bit/48.0kHz]]]></title>
                <link><![CDATA[https://sharemania.us/threads/taylor-swift-the-tortured-poets-department-qobuz-hi-res-audio-24-bit-48-0khz.242601/]]></link>
                <description><![CDATA[<article>
<blockquote class="messageText SelectQuoteContainer ugc baseHtml">
<span style="font-size: 22px"><b>Taylor Swift - THE TORTURED POETS DEPARTMENT [QOBUZ HI-RES AUDIO 24-bit/48.0kHz]</b></span><br>
<br>
<img src="https://imgur.com/sdtzB3x.jpg" class="bbCodeImage LbImage" alt="[​IMG]" data-url="https://imgur.com/sdtzB3x.jpg" style=""><br>
<br>
<span style="font-size: 18px"><b>ABOUT THE ALBUM</b></span><br>
<ul>
<li>1 disc(s) - 16 track(s)</li>
<li>Total length: 01:05:08</li>
</ul><ul>
<li>Main artists: <a href="https://www.qobuz.com/us-en/interpreter/taylor-swift/70899" target="_blank" class="externalLink" rel="nofollow">Taylor Swift</a></li>
<li>Composer: <a href="https://www.qobuz.com/us-en/composer/various-composers/573076" target="_blank" class="externalLink" rel="nofollow">Various Composers</a></li>
<li>Label: <a href="https://www.qobuz.com/us-en/label/ts-republic/download-streaming-albums/6460660" target="_blank" class="externalLink" rel="nofollow">TS - Republic</a></li>
<li>Genre: <a href="https://www.qobuz.com/us-en/genre/pop-rock/download-streaming-albums" target="_blank" class="externalLink" rel="nofollow">Pop/Rock</a>&gt;<a href="https://www.qobuz.com/us-en/genre/pop/download-streaming-albums" target="_blank" class="externalLink" rel="nofollow">Pop</a></li>
</ul><br>
<div class="bbCodeBlock bbCodeVfcHH HiddenContent">
<div class="attribution type">Hidden Content:</div>
<blockquote>You must reply before you can see the hidden data contained here.</blockquote>
</div><b>Password: musicasylum</b>
<div class="messageTextEndMarker">&nbsp;</div>
</blockquote>
</article>]]></description>
                <author><![CDATA[Mu$iC @$YLUM]]></author>
                </item>

                
                <item>
                <title><![CDATA[【Requests】[REQ AUD] - Willam - The Wreckoning]]></title>
                <link><![CDATA[https://sharemania.us/threads/willam-the-wreckoning.242599/]]></link>
                <description><![CDATA[<article>
<blockquote class="messageText SelectQuoteContainer ugc baseHtml">
<a href="https://www.discogs.com/release/4377800-Willam-The-Wreckoning" target="_blank" class="externalLink" rel="nofollow">https://www.discogs.com/release/4377800-Willam-The-Wreckoning</a><br>
<br>
Anyone have this? It's pretty rare and I can't find it anywhere, only bits and pieces.
<div class="messageTextEndMarker">&nbsp;</div>
</blockquote>
</article>]]></description>
                <author><![CDATA[MusicFanatic94]]></author>
                </item>

                
                <item>
                <title><![CDATA[【Requests】[REQ AUD] - Zayde Wolf - Cold Blooded]]></title>
                <link><![CDATA[https://sharemania.us/threads/zayde-wolf-cold-blooded.242597/]]></link>
                <description><![CDATA[<article>
<blockquote class="messageText SelectQuoteContainer ugc baseHtml">
Can someone please provide Zayde Wolf - Cold Blooded in FLAC?<br>
<br>
<a href="https://www.qobuz.com/au-en/album/cold-blooded-zayde-wolf/pmh2lt75y4kib" target="_blank" class="externalLink" rel="nofollow">https://www.qobuz.com/au-en/album/cold-blooded-zayde-wolf/pmh2lt75y4kib</a>
<div class="messageTextEndMarker">&nbsp;</div>
</blockquote>
</article>]]></description>
                <author><![CDATA[waahid]]></author>
                </item>

                
                <item>
                <title><![CDATA[【WEB MASTER】Maggie Lindemann - Decode (Paramore Cover) [1080]]]></title>
                <link><![CDATA[https://sharemania.us/threads/maggie-lindemann-decode-paramore-cover-1080.242598/]]></link>
                <description><![CDATA[<article>
<blockquote class="messageText SelectQuoteContainer ugc baseHtml">
<div style="text-align: center"><img src="https://i.ibb.co/J3V23NJ/Maggie-Lindemann-Decode-Paramore-Cover-VTM.gif" class="bbCodeImage LbImage" alt="[​IMG]" data-url="https://i.ibb.co/J3V23NJ/Maggie-Lindemann-Decode-Paramore-Cover-VTM.gif" style=""><br>
​</div>
<div class="ToggleTriggerAnchor bbCodeSpoilerContainer">
<button type="button" class="button bbCodeSpoilerButton ToggleTrigger Tooltip JsOnly" data-target="> .SpoilerTarget"><span>Spoiler: <span class="SpoilerTitle">Web Master</span></span></button>
<div class="SpoilerTarget bbCodeSpoilerText">
<div class="bbCodeBlock bbCodeCode">
<div class="type">Code:</div>
<pre>General
Complete name                            : Maggie Lindemann - Decode (Paramore Cover).mov
Format                                   : MPEG-4
Format profile                           : QuickTime
Codec ID                                 : qt   0000.02 (qt  )
File size                                : 758 MiB
Duration                                 : 4 min 16 s
Overall bit rate                         : 24.7 Mb/s
Frame rate                               : 23.976 FPS
Encoded date                             : 2024-04-12 22:11:13 UTC
Tagged date                              : 2024-04-12 22:11:13 UTC
Writing application                      : Blackmagic Design DaVinci Resolve Studio

Video
ID                                       : 1
Format                                   : HEVC
Format/Info                              : High Efficiency Video Coding
Format profile                           : Format Range@L5@Main
Codec ID                                 : hvc1
Codec ID/Info                            : High Efficiency Video Coding
Duration                                 : 4 min 16 s
Bit rate                                 : 22.4 Mb/s
Width                                    : 3 840 pixels
Height                                   : 2 160 pixels
Display aspect ratio                     : 16:9
Frame rate mode                          : Constant
Frame rate                               : 23.976 (24000/1001) FPS
Color space                              : YUV
Chroma subsampling                       : 4:2:2
Bit depth                                : 10 bits
Scan type                                : Progressive
Bits/(Pixel*Frame)                       : 0.113
Stream size                              : 687 MiB (91%)
Encoded date                             : 2024-04-12 22:11:13 UTC
Tagged date                              : 2024-04-12 22:11:13 UTC
Color range                              : Limited
Color primaries                          : BT.709
Transfer characteristics                 : BT.709
Matrix coefficients                      : BT.709
Codec configuration box                  : hvcC

Audio
ID                                       : 2
Format                                   : PCM
Format settings                          : Little / Signed
Codec ID                                 : lpcm
Duration                                 : 4 min 16 s
Bit rate mode                            : Constant
Bit rate                                 : 2 304 kb/s
Channel(s)                               : 2 channels
Channel layout                           : L R
Sampling rate                            : 48.0 kHz
Bit depth                                : 24 bits
Stream size                              : 70.6 MiB (9%)
Default                                  : Yes
Alternate group                          : 1
Encoded date                             : 2024-04-12 22:11:13 UTC
Tagged date                              : 2024-04-12 22:11:13 UTC

Other
ID                                       : 3
Type                                     : Time code
Format                                   : QuickTime TC
Duration                                 : 4 min 16 s
Frame rate                               : 23.976 (24000/1001) FPS
Time code of first frame                 : 01:00:00:00
Time code of last frame                  : 01:04:16:14
Time code, stripped                      : Yes
Language                                 : English
Encoded date                             : 2024-04-12 22:11:13 UTC
Tagged date                              : 2024-04-12 22:11:13 UTC</pre>
</div><div style="text-align: center">​</div></div>
</div><div style="text-align: center"><br>
<div class="bbCodeBlock bbCodeVfcHH HiddenContent">
<div class="attribution type">Hidden Content:</div>
<blockquote>You must reply before you can see the hidden data contained here.</blockquote>
</div></div>
<div class="messageTextEndMarker">&nbsp;</div>
</blockquote>
</article>]]></description>
                <author><![CDATA[fstambuk]]></author>
                </item>

                </channel></rss>